<svg xmlns="http://www.w3.org/2000/svg" class="icon icon-tabler icon-tabler-windmill" width="250px" height="250px" viewBox="0 0 24 24" stroke-width="1.00" stroke="rgba(1, 1, 1, 1)" fill="none" stroke-linecap="round" stroke-linejoin="round"><circle cx="50%" cy="50%" r="50%" stroke="none" stroke-width="0" fill="rgba(255, 255, 255, 1)"/><g transform="translate(2.40, 2.40) scale(0.8)"><path stroke="none" d="M0 0h24v24H0z" fill="none"/><path d="M12 12c2.76 0 5 -2.01 5 -4.5s-2.24 -4.5 -5 -4.5v9z"/><path d="M12 12c0 2.76 2.01 5 4.5 5s4.5 -2.24 4.5 -5h-9z"/><path d="M12 12c-2.76 0 -5 2.01 -5 4.5s2.24 4.5 5 4.5v-9z"/><path d="M12 12c0 -2.76 -2.01 -5 -4.5 -5s-4.5 2.24 -4.5 5h9z"/></g>
  
  
  
  
  
</svg>