<svg xmlns="http://www.w3.org/2000/svg" version="1.0" width="1024.000000pt" height="1024.000000pt" viewBox="0 0 1024.000000 1024.000000" preserveAspectRatio="xMidYMid meet">
<metadata>
Created by potrace 1.16, written by Peter Selinger 2001-2019
</metadata>
<g transform="translate(0.000000,1024.000000) scale(0.100000,-0.100000)" fill="#000000" stroke="none">
<path d="M5178 9115 c-2 -1 -61 -5 -133 -9 -140 -7 -219 -13 -275 -22 -19 -3 -46 -7 -60 -9 -63 -7 -124 -16 -131 -20 -4 -3 -24 -7 -45 -11 -81 -12 -100 -15 -139 -26 -22 -5 -49 -11 -60 -13 -53 -6 -339 -91 -377 -111 -16 -8 -28 -12 -28 -8 0 3 -6 2 -13 -4 -7 -6 -24 -13 -37 -16 -21 -4 -124 -44 -195 -75 -66 -29 -321 -155 -325 -161 -3 -4 -20 -13 -37 -21 -18 -8 -33 -17 -33 -21 0 -5 -5 -8 -11 -8 -7 0 -28 -10 -48 -22 -20 -13 -38 -23 -41 -23 -3 0 -24 -13 -47 -28 -24 -15 -45 -27 -48 -27 -3 0 -17 -10 -30 -23 -14 -12 -42 -31 -62 -42 -21 -11 -47 -28 -57 -37 -11 -10 -38 -30 -60 -45 -23 -15 -55 -39 -73 -53 -18 -14 -46 -36 -64 -50 -18 -14 -45 -36 -60 -50 -15 -14 -61 -54 -101 -90 -144 -128 -402 -398 -422 -441 -5 -10 -12 -19 -16 -19 -15 0 -330 -435 -330 -455 0 -3 -15 -28 -32 -57 -45 -72 -58 -97 -117 -214 -45 -91 -70 -145 -118 -254 -8 -19 -21 -48 -29 -64 -8 -16 -14 -34 -14 -40 0 -6 -6 -22 -13 -36 -7 -14 -28 -73 -46 -130 -18 -58 -40 -125 -48 -150 -19 -59 -59 -215 -67 -260 -3 -19 -12 -69 -21 -110 -9 -41 -17 -88 -20 -105 -25 -203 -29 -273 -30 -525 0 -157 3 -328 7 -380 17 -215 58 -434 118 -630 11 -36 19 -66 19 -68 -2 -8 78 -237 131 -377 6 -16 11 -31 10 -33 0 -1 6 -15 15 -30 13 -24 37 -78 39 -92 1 -3 6 -12 11 -20 5 -8 23 -42 40 -75 17 -33 35 -67 40 -75 5 -8 10 -20 11 -25 1 -6 13 -28 28 -50 15 -21 29 -49 32 -62 4 -13 10 -23 15 -23 4 0 15 -16 24 -35 9 -19 23 -39 31 -46 8 -6 14 -17 14 -23 0 -7 8 -21 19 -32 10 -11 24 -31 31 -45 7 -13 30 -47 51 -75 22 -28 39 -56 39 -62 0 -7 4 -12 8 -12 5 0 20 -15 33 -33 38 -54 92 -119 120 -147 14 -14 30 -33 35 -43 11 -19 250 -264 263 -269 5 -2 11 -41 14 -88 3 -47 13 -114 22 -150 18 -71 71 -190 85 -190 5 0 12 -10 16 -22 11 -38 146 -163 208 -193 31 -15 59 -32 62 -37 3 -4 11 -8 17 -7 7 1 26 -3 42 -10 17 -7 51 -15 78 -18 l47 -6 1 -81 c3 -337 7 -476 14 -511 11 -56 50 -119 95 -155 46 -36 126 -74 140 -65 6 3 15 3 20 0 6 -4 92 -7 192 -8 l181 -2 22 -88 c13 -49 28 -100 34 -113 6 -13 17 -36 23 -51 7 -16 28 -52 46 -81 18 -28 29 -52 25 -53 -70 -4 -126 -10 -162 -14 -25 -3 -72 -8 -105 -11 -34 -2 -86 -9 -116 -15 -30 -6 -68 -12 -85 -14 -16 -1 -39 -4 -50 -8 -11 -3 -42 -8 -69 -12 -27 -3 -52 -8 -55 -10 -3 -1 -22 -6 -42 -9 -47 -7 -121 -39 -137 -59 -8 -9 -12 -24 -10 -34 3 -19 67 -59 108 -67 14 -3 68 -14 120 -26 93 -21 120 -26 190 -35 62 -9 288 -34 352 -40 35 -3 81 -7 103 -10 97 -12 125 -15 215 -20 52 -3 118 -8 145 -10 46 -5 209 -12 475 -20 143 -5 1027 -5 1170 0 119 3 358 15 420 20 19 1 82 6 140 9 103 7 181 13 250 21 19 2 64 7 100 11 36 3 76 7 90 9 14 1 59 6 100 10 41 4 77 9 80 10 3 2 30 6 60 9 52 6 69 9 130 22 14 2 41 7 60 9 19 2 60 11 90 20 30 8 63 17 73 20 42 10 82 41 82 64 0 24 -37 60 -66 64 -8 2 -19 6 -26 10 -6 4 -24 9 -40 11 -15 3 -39 7 -53 11 -36 9 -125 24 -200 36 -36 5 -81 12 -100 15 -19 3 -51 7 -70 9 -19 2 -60 5 -90 9 -30 3 -86 8 -125 12 -38 3 -72 8 -74 10 -2 1 15 33 38 68 59 95 81 153 99 266 l7 45 170 2 c210 2 253 7 312 33 77 34 155 123 167 190 2 14 5 25 6 25 1 0 4 108 5 240 2 132 4 259 4 281 1 45 7 50 70 60 20 3 42 11 49 16 6 6 12 8 12 5 0 -11 124 45 159 71 81 61 161 138 161 156 0 5 8 16 19 25 20 18 59 98 87 176 11 32 18 87 19 156 l3 107 104 103 c57 57 134 140 172 184 38 44 78 91 90 105 12 14 32 41 46 60 13 19 28 38 33 41 5 3 16 17 25 31 205 306 209 312 249 388 25 48 37 70 53 97 10 17 29 58 51 108 5 11 13 27 18 35 4 8 15 31 24 50 52 118 66 151 72 179 3 17 11 33 16 36 5 4 9 16 9 29 0 12 4 26 9 32 6 5 12 21 15 35 2 15 9 35 14 45 15 28 52 152 52 174 0 10 4 21 9 24 7 5 18 48 26 101 1 6 7 28 13 50 13 48 59 308 67 385 3 30 8 69 11 85 9 54 12 609 4 660 -7 47 -17 119 -25 190 -6 53 -25 168 -41 245 -9 41 -18 85 -20 96 -2 12 -16 62 -30 110 -15 49 -29 98 -32 109 -7 27 -86 259 -107 315 -26 69 -30 79 -74 173 -23 48 -41 92 -41 97 0 6 -5 10 -11 10 -5 0 -8 4 -5 9 3 5 -4 20 -15 35 -11 14 -18 26 -15 26 8 0 -77 150 -189 333 -20 32 -159 226 -216 302 -72 95 -279 327 -360 403 -52 48 -75 71 -103 97 -57 55 -180 161 -227 196 -26 19 -80 60 -121 92 -42 31 -80 57 -86 57 -6 0 -12 4 -14 8 -3 8 -127 92 -135 92 -2 0 -19 11 -37 25 -18 14 -40 25 -49 25 -10 0 -17 4 -17 9 0 4 -21 19 -47 33 -27 13 -59 31 -73 38 -14 7 -33 17 -43 22 -10 5 -47 25 -83 44 -35 19 -64 31 -64 27 0 -5 -4 -3 -8 2 -10 15 -49 35 -67 35 -8 0 -15 5 -15 10 0 6 -7 10 -15 10 -8 0 -29 6 -47 14 -18 8 -51 22 -73 31 -22 9 -49 21 -60 26 -12 6 -27 11 -35 13 -8 2 -28 8 -43 14 -16 7 -30 12 -32 12 -2 0 -16 5 -32 12 -15 6 -30 12 -33 12 -11 2 -96 29 -115 36 -11 5 -42 13 -70 20 -27 6 -75 18 -105 25 -30 8 -71 17 -90 20 -19 3 -51 10 -70 15 -19 5 -62 14 -95 19 -33 6 -70 12 -83 15 -13 3 -49 7 -80 10 -31 3 -68 8 -81 11 -23 4 -71 9 -216 20 -83 7 -352 14 -357 10z m292 -559 c127 -6 158 -9 265 -26 33 -5 78 -12 100 -15 72 -11 228 -45 325 -71 52 -14 102 -27 110 -29 8 -2 15 -4 15 -5 0 -1 7 -3 15 -5 8 -2 41 -13 73 -24 31 -11 57 -18 57 -15 0 2 11 -3 25 -12 14 -9 25 -13 25 -9 0 4 11 0 24 -8 13 -9 35 -18 49 -21 14 -2 37 -12 51 -21 14 -9 26 -15 28 -14 2 1 38 -14 81 -34 44 -20 81 -37 83 -37 2 0 22 -11 44 -25 22 -14 40 -23 40 -19 0 3 13 -4 29 -15 16 -12 32 -21 35 -21 12 0 217 -127 305 -189 51 -36 103 -73 115 -81 38 -26 160 -128 192 -159 16 -17 33 -31 36 -31 4 0 53 -48 110 -107 57 -58 117 -120 133 -137 17 -17 53 -58 81 -91 44 -52 74 -89 169 -210 41 -53 125 -174 125 -181 0 -4 6 -15 14 -23 15 -17 58 -88 82 -136 8 -16 25 -48 38 -70 54 -93 116 -228 206 -450 11 -27 41 -123 44 -138 1 -7 4 -16 8 -22 6 -10 30 -89 35 -115 1 -8 11 -51 22 -95 11 -44 22 -93 24 -110 3 -16 10 -54 16 -83 6 -29 13 -85 17 -125 3 -40 8 -75 10 -78 2 -3 6 -100 9 -215 8 -269 -20 -573 -69 -759 -3 -11 -12 -50 -21 -87 -8 -37 -24 -98 -36 -135 -38 -120 -59 -184 -68 -201 -4 -9 -15 -33 -23 -52 -8 -19 -20 -46 -26 -60 -6 -14 -21 -50 -33 -80 -12 -30 -28 -62 -34 -70 -7 -8 -16 -26 -20 -39 -4 -13 -21 -47 -38 -75 -16 -28 -35 -60 -41 -71 -32 -57 -160 -245 -168 -245 -4 0 -8 -5 -8 -11 0 -9 -44 -74 -60 -89 -3 -3 -16 -18 -28 -34 -12 -15 -42 -51 -67 -78 -25 -27 -45 -54 -45 -59 0 -5 -5 -9 -11 -9 -12 0 -39 -25 -39 -36 0 -4 -29 -36 -64 -71 -64 -62 -64 -63 -93 -48 -15 8 -34 15 -40 15 -7 0 -13 4 -13 8 0 5 -6 9 -12 9 -19 2 -149 31 -153 35 -2 2 -5 66 -8 143 -3 77 -11 156 -18 175 -26 75 -98 146 -171 168 -13 4 -779 8 -1703 9 -924 1 -1729 3 -1790 3 -60 1 -114 1 -120 0 -5 0 -112 0 -237 0 -226 1 -228 1 -279 -26 -62 -31 -104 -74 -132 -134 -18 -37 -22 -69 -25 -190 l-4 -146 -57 -13 c-31 -7 -60 -16 -66 -19 -5 -4 -14 -7 -20 -7 -5 -1 -32 -11 -59 -23 -47 -22 -50 -22 -69 -5 -42 37 -147 148 -147 155 0 5 -7 8 -15 8 -8 0 -15 5 -15 10 0 6 -9 21 -21 33 -11 12 -37 41 -57 65 -20 24 -49 57 -64 75 -16 17 -28 36 -28 42 0 6 -10 21 -23 35 -13 14 -32 40 -42 58 -11 17 -23 32 -27 32 -4 0 -8 5 -8 12 0 6 -8 21 -19 32 -10 12 -29 41 -42 66 -13 25 -30 51 -36 58 -7 7 -13 20 -13 28 0 8 -4 14 -10 14 -5 0 -10 5 -10 11 0 5 -11 27 -25 47 -14 20 -25 45 -25 54 0 10 -4 18 -8 18 -9 0 -82 161 -82 179 0 6 -4 11 -9 11 -4 0 -14 21 -22 48 -7 26 -19 58 -26 72 -7 14 -13 33 -13 42 0 9 -4 20 -10 23 -5 3 -10 16 -10 29 0 12 -4 26 -9 32 -6 5 -11 20 -13 34 -2 14 -6 30 -10 35 -6 10 -45 162 -55 215 -2 13 -11 55 -19 93 -8 38 -12 73 -9 77 3 5 1 11 -4 14 -5 3 -12 45 -16 93 -4 49 -9 102 -11 118 -5 46 -6 428 0 445 2 8 7 56 11 105 5 87 8 109 20 185 4 19 8 49 10 65 32 223 148 576 278 845 23 47 48 92 55 102 7 9 15 22 16 30 4 20 67 125 152 252 10 16 24 36 29 45 13 21 68 94 76 101 3 3 10 12 15 21 10 17 39 55 118 153 51 63 78 92 190 209 36 38 66 73 66 78 0 5 6 9 13 9 8 0 25 12 39 28 13 15 53 52 88 82 35 30 72 63 82 73 10 9 22 17 28 17 6 0 10 5 10 10 0 6 11 15 25 20 14 5 25 13 25 18 0 4 15 16 33 27 17 10 37 23 42 27 57 47 130 98 141 98 8 0 14 4 14 8 0 5 12 15 28 23 15 7 40 24 55 36 16 13 35 23 43 23 8 0 14 5 14 11 0 5 4 8 9 4 5 -3 13 0 16 5 4 6 17 15 28 21 12 5 49 25 82 44 33 20 76 43 95 51 19 9 62 29 95 44 33 15 85 38 115 50 30 12 69 28 85 35 17 7 46 16 65 20 19 4 40 10 45 14 14 10 138 46 148 43 4 -1 7 2 7 6 0 5 6 9 13 10 6 0 32 6 57 12 68 17 80 20 145 31 33 5 74 14 90 19 17 5 57 11 90 15 33 3 69 8 80 11 19 4 59 10 135 19 19 3 116 8 215 11 99 4 182 8 184 10 2 2 7 2 10 -1 4 -2 63 -6 131 -9z m1702 -5350 c23 -11 39 -73 37 -144 -3 -102 -6 -108 -76 -153 -69 -45 -143 -116 -143 -136 0 -7 -4 -13 -10 -13 -19 0 -89 -145 -105 -216 -27 -123 -22 -296 11 -372 48 -112 62 -136 127 -216 47 -58 120 -118 163 -136 20 -8 22 -17 24 -102 6 -293 4 -404 -8 -425 -13 -24 -66 -56 -75 -47 -3 3 -15 1 -26 -6 -12 -6 -21 -7 -21 -1 0 5 -14 6 -35 1 -24 -5 -35 -4 -36 4 0 6 -2 7 -5 1 -4 -9 -105 -11 -214 -5 -19 1 -771 2 -1670 1 -899 0 -1648 1 -1663 3 -39 6 -76 32 -88 64 -9 22 -8 199 0 483 1 9 12 21 25 27 32 14 144 100 153 117 5 7 23 29 41 49 17 19 32 38 32 41 0 3 10 22 23 43 23 36 64 141 73 185 7 37 7 199 -1 250 -12 80 -91 252 -120 264 -8 3 -15 11 -15 18 0 19 -87 96 -157 139 l-63 39 0 98 c0 89 2 100 24 126 l24 28 999 5 c1193 6 2751 -2 2775 -14z m-3982 -497 c131 -46 230 -180 233 -312 1 -82 -16 -141 -59 -200 -64 -88 -135 -125 -255 -132 -138 -8 -264 63 -324 182 -27 53 -30 67 -30 158 0 85 3 106 23 143 46 87 125 150 216 173 41 10 152 4 196 -12z m4391 9 c49 -9 133 -63 170 -110 53 -67 73 -133 67 -224 -14 -212 -200 -353 -413 -313 -99 19 -182 79 -225 165 -43 87 -37 235 12 306 10 14 18 30 18 35 0 11 65 73 108 103 63 43 158 57 263 38z m-1878 -1798 c3 -3 7 -23 10 -45 10 -76 20 -115 28 -121 5 -3 9 -14 9 -24 0 -10 3 -20 8 -22 4 -1 19 -25 33 -53 l26 -50 -547 0 -548 0 26 45 c14 25 30 50 34 57 16 21 48 137 48 175 0 33 3 37 28 40 45 5 840 3 845 -2z"/>
<path d="M3960 7242 c0 -4 -14 -13 -31 -21 -19 -8 -46 -37 -70 -75 -64 -100 -71 -109 -127 -163 -53 -51 -123 -86 -218 -112 -86 -23 -139 -99 -122 -174 20 -92 67 -122 183 -120 65 1 96 8 166 36 223 88 384 249 425 423 28 120 -42 214 -160 214 -25 0 -46 -3 -46 -8z"/>
<path d="M6452 7233 c-69 -34 -103 -120 -82 -211 7 -31 21 -69 31 -84 11 -14 19 -29 19 -33 0 -4 15 -26 33 -49 99 -126 249 -223 414 -266 96 -25 138 -25 190 0 73 35 101 83 94 160 -6 59 -73 120 -137 124 -13 0 -24 4 -24 7 0 4 -13 9 -29 12 -46 10 -144 72 -192 124 -25 26 -62 76 -83 111 -67 111 -149 147 -234 105z"/>
<path d="M3499 6396 c-2 -2 -37 -7 -78 -10 -41 -4 -78 -9 -82 -12 -4 -2 -20 -6 -36 -8 -15 -3 -53 -12 -83 -21 -30 -9 -65 -19 -77 -22 -13 -3 -23 -9 -23 -14 0 -5 -7 -9 -16 -9 -35 0 -236 -123 -257 -157 -4 -7 -12 -13 -17 -13 -10 0 -107 -95 -145 -141 -192 -233 -288 -581 -250 -899 7 -64 47 -232 66 -275 6 -16 13 -34 15 -40 11 -46 107 -222 129 -237 6 -4 3 -20 -7 -41 -45 -94 -31 -191 36 -257 45 -45 128 -76 176 -67 26 6 28 4 32 -38 12 -99 83 -173 180 -185 127 -16 238 65 238 175 l0 37 63 -9 c106 -14 327 -9 423 11 32 7 116 33 149 47 17 7 35 11 41 10 6 0 17 6 24 14 7 8 18 15 25 15 22 0 129 61 200 115 62 47 128 108 191 177 27 30 95 132 123 183 12 22 25 47 30 55 93 166 132 458 91 690 -44 251 -212 531 -405 678 -33 25 -62 49 -65 52 -10 13 -187 103 -247 126 -76 28 -171 52 -238 59 -83 8 -202 15 -206 11z m-155 -358 c23 -6 44 -11 48 -10 19 4 78 -85 89 -134 35 -154 -110 -393 -317 -526 -177 -114 -364 -97 -420 38 -50 118 34 314 203 475 139 132 284 190 397 157z m615 -164 c28 -36 26 -70 -5 -100 -19 -20 -31 -24 -52 -19 -40 9 -65 39 -65 76 0 65 82 93 122 43z m-1057 -1320 c46 -22 71 -59 75 -113 5 -54 -16 -94 -70 -135 -70 -53 -169 -29 -208 51 -63 131 71 261 203 197z"/>
<path d="M6898 6395 c-2 -2 -28 -6 -58 -9 -70 -7 -184 -31 -235 -50 -311 -110 -577 -368 -677 -655 -80 -231 -94 -408 -52 -641 20 -114 92 -284 166 -394 49 -71 121 -165 128 -165 3 -1 32 -26 65 -57 32 -31 84 -72 114 -91 54 -35 184 -103 206 -108 5 -1 26 -9 46 -18 20 -9 48 -18 62 -21 15 -2 30 -7 34 -9 5 -3 24 -8 43 -11 19 -3 58 -10 85 -15 67 -13 282 -6 375 12 41 8 76 13 78 12 2 -2 5 -38 7 -81 5 -104 11 -132 40 -176 54 -82 132 -121 245 -122 122 -1 219 55 262 153 18 38 20 65 19 239 -1 174 -3 200 -21 236 -52 107 -188 126 -288 40 -44 -37 -45 -37 -132 -19 -35 7 -96 54 -121 93 -52 83 -61 164 -28 255 50 137 176 219 328 213 95 -3 159 -30 224 -94 72 -70 107 -149 109 -247 0 -25 4 -45 9 -45 27 0 115 199 148 336 97 398 -15 804 -302 1095 -71 72 -195 169 -215 169 -6 0 -12 4 -14 8 -4 11 -160 86 -218 106 -72 23 -125 36 -215 51 -34 6 -213 14 -217 10z m-83 -371 c97 -51 116 -202 45 -359 -66 -147 -267 -320 -418 -360 -58 -15 -152 -11 -190 9 -84 44 -119 144 -87 252 57 198 240 392 436 464 68 26 158 23 214 -6z m565 -144 c24 -24 26 -67 4 -98 -11 -16 -25 -22 -52 -22 -45 0 -58 8 -70 40 -11 29 1 69 25 88 25 18 70 15 93 -8z m255 -1712 c30 -35 32 -72 6 -114 -34 -56 -109 -53 -149 7 -36 53 -19 109 41 134 40 17 73 8 102 -27z"/>
<path d="M5170 4816 c-57 -12 -137 -52 -178 -90 -73 -65 -128 -200 -112 -272 9 -38 50 -82 78 -85 82 -8 119 15 158 98 32 67 72 100 131 109 39 6 55 3 93 -17 37 -20 50 -35 76 -88 43 -90 84 -115 160 -97 48 11 76 47 82 105 9 94 -82 237 -185 294 -98 53 -195 67 -303 43z"/>
<path d="M2744 3949 c-28 -14 -54 -60 -54 -96 0 -39 34 -91 65 -99 71 -18 138 28 138 94 0 51 -18 81 -58 98 -39 16 -61 17 -91 3z"/>
<path d="M5204 2934 c-151 -38 -267 -162 -314 -333 -20 -76 -20 -217 1 -304 38 -160 158 -302 281 -336 4 -1 22 -8 40 -15 50 -20 164 -13 228 14 67 28 150 88 183 132 130 172 154 435 56 619 -59 110 -178 206 -279 224 -66 13 -145 12 -196 -1z m192 -305 c110 -107 68 -382 -63 -418 -53 -15 -112 21 -145 89 -34 69 -41 121 -29 201 25 151 146 216 237 128z"/>
<path d="M4484 2911 c-59 -36 -67 -72 -68 -296 l-1 -200 -88 -2 c-80 -2 -88 0 -81 15 4 9 18 48 31 86 30 85 25 126 -22 173 -27 27 -41 33 -76 33 -66 0 -102 -27 -139 -105 -48 -100 -80 -203 -80 -254 1 -59 34 -125 84 -165 l38 -31 169 -3 169 -3 0 -57 c0 -98 43 -145 133 -148 44 -2 59 2 86 23 41 32 61 78 61 138 0 39 3 45 21 45 12 0 39 17 60 39 34 34 39 44 39 86 0 74 -41 125 -100 125 -19 0 -20 8 -20 200 0 227 -8 265 -65 300 -41 26 -110 26 -151 1z"/>
<path d="M6292 2909 c-60 -39 -65 -62 -68 -284 -1 -110 -2 -203 -3 -206 -1 -5 -161 -7 -161 -2 0 2 11 30 24 63 41 100 38 160 -8 206 -28 28 -42 34 -76 34 -76 0 -107 -31 -163 -160 -47 -110 -60 -174 -47 -235 12 -57 55 -126 92 -147 15 -8 78 -15 183 -18 l159 -5 3 -54 c6 -88 43 -139 111 -151 80 -14 145 32 162 116 6 30 10 63 8 75 -2 17 3 22 26 25 16 2 41 15 55 29 23 22 26 34 26 94 0 80 -15 104 -73 118 l-36 9 -1 194 c-1 127 -6 208 -14 233 -26 77 -128 111 -199 66z"/>
<path d="M4492 1863 c-22 -3 -47 -18 -72 -43 -49 -49 -63 -124 -35 -196 47 -123 238 -123 302 0 21 41 13 137 -14 174 -39 52 -102 75 -181 65z"/>
<path d="M4721 1858 c-26 -9 -35 -30 -27 -63 5 -20 13 -25 36 -25 30 0 30 -1 31 -57 3 -158 14 -186 66 -167 28 9 28 10 31 112 3 99 3 102 26 102 46 0 74 63 40 91 -17 14 -169 20 -203 7z"/>
<path d="M5134 1858 c-17 -4 -37 -15 -44 -23 -13 -16 -19 -211 -7 -257 17 -67 87 -49 87 23 l0 39 49 0 c39 0 53 5 64 21 31 44 -1 82 -68 81 -25 -1 -45 3 -45 8 0 6 6 10 13 11 84 6 114 12 125 26 16 22 15 48 -2 62 -17 15 -130 21 -172 9z"/>
<path d="M5408 1846 c-52 -26 -78 -61 -88 -117 -11 -61 -3 -92 36 -138 26 -29 45 -41 81 -49 59 -13 77 -11 128 13 47 24 85 76 85 119 0 24 3 27 10 16 5 -8 10 -26 10 -40 0 -32 33 -85 62 -101 36 -20 128 -16 162 6 41 27 56 72 56 169 0 102 -11 136 -42 136 -44 0 -50 -13 -57 -115 -5 -79 -10 -99 -25 -111 -17 -12 -22 -12 -38 3 -14 12 -18 32 -19 87 -2 112 -8 130 -47 134 -27 3 -34 -1 -42 -23 -6 -14 -10 -49 -10 -76 0 -53 -13 -59 -23 -11 -19 95 -145 147 -239 98z"/>
<path d="M5994 1853 c-15 -11 -19 -31 -24 -111 -6 -123 1 -181 25 -198 23 -17 27 -17 49 -1 11 8 19 32 23 70 l6 57 62 -65 c65 -68 99 -81 125 -50 17 21 18 251 2 283 -16 28 -57 29 -72 2 -6 -12 -11 -43 -12 -70 0 -28 -2 -50 -5 -50 -3 0 -15 12 -26 28 -45 57 -98 110 -116 115 -9 2 -26 -2 -37 -10z"/>
<path d="M6337 1863 c-39 -6 -47 -34 -47 -161 0 -126 5 -146 33 -159 17 -8 112 -10 112 -3 0 1 11 3 24 6 129 24 154 221 37 293 -32 20 -106 31 -159 24z"/>
<path d="M4064 1835 c-13 -20 -15 -47 -12 -146 3 -113 5 -122 27 -140 21 -17 26 -18 45 -6 16 11 22 28 26 71 l5 57 65 -66 c40 -40 73 -65 86 -65 41 0 49 24 48 154 -1 134 -10 166 -50 166 -30 0 -44 -31 -44 -98 l-1 -47 -26 30 c-85 99 -103 115 -127 115 -16 0 -32 -9 -42 -25z"/>
</g>
</svg>